<svg width="26" height="18" viewBox="0 0 26 18" fill="none" xmlns="http://www.w3.org/2000/svg">
<path d="M8.24957 7.33333H9.91624C11.0946 7.33333 11.6837 7.33333 12.0496 7.7C12.4162 8.06583 12.4162 8.655 12.4162 9.83333V14.8333C12.4162 13.655 12.4162 13.0658 12.7829 12.7C13.1479 12.3333 13.7371 12.3333 14.9162 12.3333C16.0946 12.3333 16.6837 12.3333 17.0496 12.7C17.4162 13.0658 17.4162 13.655 17.4162 14.8333V17.3333H0.749573C0.749573 16.155 0.749573 15.5658 1.11624 15.2C1.48124 14.8333 2.07041 14.8333 3.24957 14.8333C4.42791 14.8333 5.01707 14.8333 5.38291 15.2C5.74957 15.565 5.74957 16.1542 5.74957 17.3333V9.83333C5.74957 8.655 5.74957 8.06583 6.11624 7.7C6.48124 7.33333 7.07041 7.33333 8.24957 7.33333ZM8.37124 1.51916C8.68791 0.949997 8.84624 0.666664 9.08291 0.666664C9.31957 0.666664 9.47791 0.949997 9.79457 1.51916L9.87624 1.66583C9.96624 1.8275 10.0112 1.9075 10.0812 1.96083C10.1521 2.01416 10.2396 2.03416 10.4146 2.07333L10.5729 2.11C11.1879 2.24916 11.4954 2.31833 11.5687 2.55333C11.6421 2.78916 11.4321 3.03416 11.0129 3.52416L10.9046 3.65083C10.7854 3.79 10.7254 3.85916 10.6987 3.94583C10.6721 4.0325 10.6812 4.125 10.6987 4.31083L10.7154 4.48C10.7787 5.13416 10.8104 5.46166 10.6196 5.60666C10.4279 5.7525 10.1396 5.61916 9.56374 5.35416L9.41541 5.28583C9.25124 5.21083 9.16957 5.1725 9.08291 5.1725C8.99624 5.1725 8.91457 5.21083 8.75041 5.28583L8.60207 5.35416C8.02624 5.61916 7.73791 5.7525 7.54624 5.60666C7.35457 5.46166 7.38707 5.13416 7.45041 4.48L7.46707 4.31083C7.48457 4.125 7.49374 4.0325 7.46707 3.94583C7.44041 3.86 7.38041 3.79 7.26124 3.65083L7.15291 3.52416C6.73374 3.03416 6.52374 2.78916 6.59707 2.55333C6.67041 2.31833 6.97791 2.24916 7.59291 2.11L7.75124 2.07333C7.92624 2.03416 8.01374 2.015 8.08457 1.96083C8.15457 1.9075 8.19957 1.8275 8.28957 1.66583L8.37124 1.51916Z" fill="#919EAB"/>
</svg>
