<svg width="27" height="12" viewBox="0 0 27 12" fill="none" xmlns="http://www.w3.org/2000/svg">
<path d="M18.0834 1.76958H17.4417L17.3959 1.74208C15.4617 1.62291 13.8484 1.00875 13.0692 0.147079L11.6667 0.852913C11.6209 0.944579 11.5659 1.02708 11.52 1.10958C12.1709 1.66875 12.5834 2.36541 12.5834 3.14458C12.5834 3.44708 12.5009 3.73125 12.3909 4.01541L10.6767 2.30125C10.475 2.53041 10.2642 2.75041 10.035 2.95208L11.8959 4.81291C11.7034 5.04208 11.4834 5.24375 11.2084 5.43625L9.31085 3.52041C9.04502 3.70375 8.77919 3.85958 8.50419 4.01541L10.365 5.89458C10.0625 6.01375 9.73252 6.11458 9.37502 6.18791L7.62419 4.43708C7.31252 4.56541 7.00085 4.68458 6.68002 4.78541L8.23835 6.35291H8.00002C6.62502 6.35291 5.43335 5.93125 4.59002 5.27125C3.83835 5.39041 3.12335 5.43625 2.50002 5.43625C0.666687 5.43625 0.666687 8.18625 0.666687 8.18625C0.666687 9.20375 1.48252 10.0196 2.50002 10.0196V10.9362C2.50002 11.4404 2.91252 11.8529 3.41669 11.8529C3.92085 11.8529 4.33335 11.4404 4.33335 10.9362V10.0196H5.25002V10.9362C5.25002 11.4404 5.66252 11.8529 6.16669 11.8529C6.67085 11.8529 7.08335 11.4404 7.08335 10.9362V10.0196H8.00002V10.9362C8.00002 11.4404 8.41252 11.8529 8.91669 11.8529C9.42085 11.8529 9.83335 11.4404 9.83335 10.9362V10.0196H12.5834V10.9362C12.5834 11.4404 12.9959 11.8529 13.5 11.8529C14.0042 11.8529 14.4167 11.4404 14.4167 10.9362V10.0196H15.3334V10.9362C15.3334 11.4404 15.7459 11.8529 16.25 11.8529C16.7542 11.8529 17.1667 11.4404 17.1667 10.9362V10.0196H18.0834C18.0834 10.0196 19 10.0196 19 5.89458C19 2.68625 18.0834 1.76958 18.0834 1.76958Z" fill="#919EAB"/>
</svg>
