<svg width="24" height="16" viewBox="0 0 24 16" fill="none" xmlns="http://www.w3.org/2000/svg">
<path fill-rule="evenodd" clip-rule="evenodd" d="M1.22 1.88666C0 3.10833 0 5.07166 0 9C0 12.9283 0 14.8925 1.22 16.1125C2.44167 17.3333 4.405 17.3333 8.33333 17.3333C12.2617 17.3333 14.2258 17.3333 15.4458 16.1125C16.6667 14.8933 16.6667 12.9283 16.6667 9C16.6667 5.07166 16.6667 3.1075 15.4458 1.88666C14.2267 0.666664 12.2617 0.666664 8.33333 0.666664C4.405 0.666664 2.44083 0.666664 1.22 1.88666ZM7.12 5.26416C7.17658 5.20469 7.22089 5.13465 7.2504 5.05804C7.27991 4.98144 7.29404 4.89978 7.29199 4.81772C7.28994 4.73565 7.27174 4.6548 7.23845 4.57976C7.20515 4.50473 7.15739 4.43699 7.09792 4.38041C7.03844 4.32384 6.9684 4.27953 6.8918 4.25002C6.8152 4.22051 6.73353 4.20637 6.65147 4.20843C6.5694 4.21048 6.48855 4.22867 6.41352 4.26197C6.33848 4.29527 6.27074 4.34302 6.21417 4.4025L4.28583 6.4275L3.78583 5.9025C3.72987 5.84065 3.66209 5.79063 3.58649 5.75538C3.51089 5.72014 3.429 5.70038 3.34565 5.69728C3.2623 5.69418 3.17917 5.70779 3.10116 5.73732C3.02315 5.76684 2.95184 5.81169 2.89143 5.8692C2.83102 5.92672 2.78273 5.99574 2.74942 6.07221C2.7161 6.14868 2.69843 6.23104 2.69744 6.31445C2.69646 6.39785 2.71217 6.48061 2.74367 6.55785C2.77517 6.63508 2.8218 6.70523 2.88083 6.76416L3.83333 7.76416C3.8917 7.82543 3.96191 7.8742 4.03969 7.90753C4.11747 7.94086 4.20121 7.95804 4.28583 7.95804C4.37045 7.95804 4.45419 7.94086 4.53198 7.90753C4.60976 7.8742 4.67996 7.82543 4.73833 7.76416L7.12 5.26416ZM9.16667 5.875C9.00091 5.875 8.84194 5.94085 8.72472 6.05806C8.60751 6.17527 8.54167 6.33424 8.54167 6.5C8.54167 6.66576 8.60751 6.82473 8.72472 6.94194C8.84194 7.05915 9.00091 7.125 9.16667 7.125H13.3333C13.4991 7.125 13.6581 7.05915 13.7753 6.94194C13.8925 6.82473 13.9583 6.66576 13.9583 6.5C13.9583 6.33424 13.8925 6.17527 13.7753 6.05806C13.6581 5.94085 13.4991 5.875 13.3333 5.875H9.16667ZM7.11917 11.0975C7.1782 11.0386 7.22483 10.9684 7.25633 10.8912C7.28783 10.8139 7.30354 10.7312 7.30256 10.6478C7.30157 10.5644 7.2839 10.482 7.25058 10.4055C7.21727 10.3291 7.16898 10.2601 7.10857 10.2025C7.04816 10.145 6.97685 10.1002 6.89884 10.0707C6.82083 10.0411 6.7377 10.0275 6.65435 10.0306C6.571 10.0337 6.48911 10.0535 6.41351 10.0887C6.33791 10.124 6.27013 10.174 6.21417 10.2358L4.28583 12.2608L3.78583 11.7358C3.72987 11.674 3.66209 11.624 3.58649 11.5887C3.51089 11.5535 3.429 11.5337 3.34565 11.5306C3.2623 11.5275 3.17917 11.5411 3.10116 11.5707C3.02315 11.6002 2.95184 11.645 2.89143 11.7025C2.83102 11.7601 2.78273 11.8291 2.74942 11.9055C2.7161 11.982 2.69843 12.0644 2.69744 12.1478C2.69646 12.2312 2.71217 12.3139 2.74367 12.3912C2.77517 12.4684 2.8218 12.5386 2.88083 12.5975L3.83333 13.5975C3.8917 13.6588 3.96191 13.7075 4.03969 13.7409C4.11747 13.7742 4.20121 13.7914 4.28583 13.7914C4.37045 13.7914 4.45419 13.7742 4.53198 13.7409C4.60976 13.7075 4.67996 13.6588 4.73833 13.5975L7.11917 11.0975ZM9.16667 11.7083C9.00091 11.7083 8.84194 11.7742 8.72472 11.8914C8.60751 12.0086 8.54167 12.1676 8.54167 12.3333C8.54167 12.4991 8.60751 12.6581 8.72472 12.7753C8.84194 12.8925 9.00091 12.9583 9.16667 12.9583H13.3333C13.4991 12.9583 13.6581 12.8925 13.7753 12.7753C13.8925 12.6581 13.9583 12.4991 13.9583 12.3333C13.9583 12.1676 13.8925 12.0086 13.7753 11.8914C13.6581 11.7742 13.4991 11.7083 13.3333 11.7083H9.16667Z" fill="#919EAB"/>
</svg>
