<svg width="24" height="16" viewBox="0 0 24 16" fill="none" xmlns="http://www.w3.org/2000/svg">
<path d="M15.7171 2.91459C15.7092 2.78887 15.6594 2.66944 15.5756 2.57542C15.4917 2.48139 15.3788 2.41823 15.2548 2.39604C12.2303 1.85393 10.9576 1.42994 8.22636 0.200879C7.95355 0.0992776 7.78444 0.101035 7.52323 0.200879C4.79194 1.43135 3.51929 1.85322 0.494796 2.39604C0.370803 2.41823 0.257847 2.48139 0.174024 2.57542C0.0902009 2.66944 0.0403617 2.78887 0.032491 2.91459C-0.102861 5.06264 0.185069 7.06303 0.888897 8.86127C1.46441 10.3276 2.31702 11.6694 3.40011 12.8132C4.97054 14.4806 6.71183 15.4541 7.60972 15.8226C7.77998 15.892 7.97067 15.892 8.14093 15.8226C9.09015 15.4387 10.7667 14.493 12.3495 12.8125C13.4325 11.6689 14.2851 10.3274 14.8607 8.86127C15.5645 7.06338 15.8525 5.06264 15.7171 2.91459Z" fill="#919EAB"/>
</svg>
