<svg xmlns="http://www.w3.org/2000/svg" width="15" height="16" viewBox="0 0 15 16" fill="none">
<path d="M7.49984 2.21893C4.30766 2.21893 1.71875 4.80643 1.71875 8.00003C1.71875 11.1936 4.30766 13.7811 7.49984 13.7811C10.693 13.7811 13.2809 11.1936 13.2809 8.00003C13.2809 4.80643 10.6934 2.21893 7.49984 2.21893ZM7.49984 3.62518C8.36703 3.62518 9.17422 3.88206 9.85484 4.31893L3.81875 10.355C3.36577 9.65311 3.12489 8.83542 3.125 8.00003C3.125 5.58784 5.08766 3.62518 7.49984 3.62518ZM7.49984 12.3749C6.66448 12.3748 5.84685 12.1339 5.14484 11.6811L11.1805 5.64503C11.6334 6.34694 11.8743 7.16463 11.8742 8.00003C11.8742 10.4122 9.91203 12.3749 7.49984 12.3749Z" fill="#FF3D00"/>
</svg>