<svg xmlns="http://www.w3.org/2000/svg" width="15" height="16" viewBox="0 0 15 16" fill="none">
  <path fill-rule="evenodd" clip-rule="evenodd" d="M7.5 13.625C8.23869 13.625 8.97014 13.4795 9.65259 13.1968C10.3351 12.9141 10.9551 12.4998 11.4775 11.9775C11.9998 11.4551 12.4141 10.8351 12.6968 10.1526C12.9795 9.47014 13.125 8.73869 13.125 8C13.125 7.26131 12.9795 6.52986 12.6968 5.84741C12.4141 5.16495 11.9998 4.54485 11.4775 4.02252C10.9551 3.50019 10.3351 3.08586 9.65259 2.80318C8.97014 2.52049 8.23869 2.375 7.5 2.375C6.00816 2.375 4.57742 2.96763 3.52252 4.02252C2.46763 5.07742 1.875 6.50816 1.875 8C1.875 9.49184 2.46763 10.9226 3.52252 11.9775C4.57742 13.0324 6.00816 13.625 7.5 13.625ZM10.48 6.525C10.5349 6.46228 10.5766 6.38921 10.6029 6.31011C10.6291 6.231 10.6392 6.14745 10.6327 6.06437C10.6261 5.98128 10.603 5.90035 10.5647 5.82633C10.5264 5.75231 10.4737 5.68669 10.4097 5.63334C10.3457 5.57999 10.2716 5.53998 10.1919 5.51566C10.1122 5.49135 10.0285 5.48323 9.94555 5.49177C9.86265 5.50031 9.7823 5.52534 9.70922 5.5654C9.63613 5.60545 9.5718 5.65972 9.52 5.725L7.27125 8.42313C7.05437 8.68313 6.9325 8.8275 6.83563 8.91563L6.83187 8.91937L6.8275 8.91625C6.7225 8.83687 6.58813 8.70438 6.34938 8.465L5.44187 7.55813C5.324 7.44428 5.16612 7.38128 5.00225 7.3827C4.83838 7.38413 4.68162 7.44986 4.56574 7.56574C4.44986 7.68162 4.38413 7.83838 4.3827 8.00225C4.38128 8.16612 4.44428 8.324 4.55813 8.44187L5.465 9.34875L5.49062 9.37438C5.695 9.57875 5.89063 9.775 6.07375 9.91313C6.27813 10.0681 6.54625 10.2131 6.88937 10.1981C7.23312 10.1825 7.48688 10.0131 7.67688 9.84062C7.84562 9.68625 8.02375 9.47312 8.20813 9.25125L8.23125 9.22375L10.48 6.525Z" fill="#00BFA5"/>
</svg>