<svg xmlns="http://www.w3.org/2000/svg" width="86" height="46" viewBox="0 0 86 46" fill="none">
  <g clip-path="url(#clip0_187_1544)">
    <path d="M1.41335 21.0072L-0.000290284 1.44612C-0.0101329 1.31698 0.0870631 1.20506 0.216247 1.19522L3.34866 0.968908C3.42371 0.963988 3.4963 0.994736 3.54552 1.05254L14.0538 13.5907C14.2002 13.7653 14.4831 13.6497 14.4671 13.4234L13.5309 0.468319C13.521 0.339175 13.6182 0.22725 13.7474 0.21741L16.7654 -0.000290497C16.8946 -0.0101301 17.0065 0.0870358 17.0164 0.21618L18.43 19.7785C18.4399 19.9077 18.3427 20.0196 18.2135 20.0294L15.5511 20.2213C15.1807 20.2484 14.8203 20.0958 14.5828 19.8105L4.37599 7.63399C4.22958 7.45933 3.9466 7.57495 3.9626 7.80126L4.89888 20.7563C4.90872 20.8855 4.81152 20.9974 4.68234 21.0072L1.66434 21.2249C1.53516 21.2348 1.4232 21.1376 1.41335 21.0085V21.0072Z" fill="black"/>
    <path d="M22.6653 6.60709C23.9645 4.98725 25.6107 4.10538 27.6051 3.96147C28.721 3.8803 29.7754 4.09431 30.7695 4.60228C31.3207 4.88393 31.7993 5.21971 32.2053 5.61083C32.5178 5.91217 33.0382 5.68586 33.0357 5.25169L33.0308 4.25051C33.0296 3.99099 33.2289 3.77575 33.4885 3.7573L35.5296 3.60971C35.8015 3.59003 36.0365 3.7942 36.0562 4.06602L37.0761 18.1736C37.0958 18.4454 36.8916 18.6803 36.6197 18.7L34.5786 18.8476C34.3202 18.866 34.0914 18.6815 34.0557 18.4245L33.9167 17.4393C33.8564 17.0125 33.3138 16.8612 33.0456 17.2007C32.6986 17.6398 32.2729 18.0358 31.766 18.3888C30.8556 19.0247 29.8418 19.3826 28.7259 19.4638C26.7315 19.6077 24.9697 18.9718 23.4429 17.5561C21.9148 16.1405 21.0745 14.3718 20.9219 12.2501C20.7669 10.11 21.3488 8.22939 22.6665 6.60832L22.6653 6.60709ZM25.7891 15.0975C26.7328 15.9301 27.8253 16.3016 29.0704 16.2118C30.3155 16.122 31.376 15.5993 32.1991 14.6485C33.0222 13.6978 33.3888 12.6007 33.299 11.3559C33.208 10.094 32.6863 9.05099 31.7353 8.22816C30.783 7.40532 29.6769 7.0388 28.4146 7.12982C27.1708 7.2196 26.141 7.73987 25.3277 8.69062C24.5132 9.64137 24.1515 10.7471 24.2438 12.009C24.3336 13.2526 24.8491 14.282 25.7916 15.0962L25.7891 15.0975Z" fill="black"/>
    <path d="M1.69641 24.3198L19.1585 23.0591C19.3848 23.0432 19.5805 23.2129 19.5977 23.4392L19.829 26.6457C19.845 26.872 19.6752 27.0675 19.4488 27.0848L13.2394 27.5337C13.013 27.5497 12.8432 27.7465 12.8592 27.9728L14.1104 45.2843C14.1264 45.5106 13.9566 45.7062 13.7303 45.7234L10.3579 45.9669C10.1315 45.9829 9.93592 45.8132 9.9187 45.5869L8.66745 28.2754C8.65146 28.049 8.45461 27.8793 8.22823 27.8953L1.98554 28.3467C1.75916 28.3627 1.56353 28.1929 1.54631 27.9666L1.31501 24.7602C1.29901 24.5339 1.4688 24.3383 1.69518 24.3211L1.69641 24.3198Z" fill="black"/>
    <path d="M22.5003 29.3612L24.6779 29.2038C24.924 29.1865 25.143 29.3575 25.1836 29.601L25.3042 30.3156C25.3718 30.7166 25.8837 30.8593 26.1408 30.5432C27.0217 29.4596 28.3 28.8581 29.977 28.7364L30.1184 28.7265C30.383 28.7069 30.6376 28.6982 30.88 28.6982C31.1704 28.6982 31.3955 28.9528 31.3562 29.2406L31.0375 31.5825C31.0067 31.8112 30.816 31.9834 30.586 31.9945C30.5405 31.997 30.4925 31.9994 30.442 32.0031C29.0444 32.104 27.9248 32.6169 27.0795 33.5405C26.2355 34.4655 25.8837 35.9082 26.0264 37.8712L26.4865 44.246C26.505 44.5092 26.3081 44.738 26.0448 44.7564L23.6272 44.9311C23.3639 44.9495 23.1351 44.7527 23.1166 44.4895L22.0598 29.8704C22.0413 29.6072 22.2382 29.3784 22.5015 29.36L22.5003 29.3612Z" fill="black"/>
    <path d="M34.0147 30.5052C35.3557 28.8337 37.0548 27.9235 39.1131 27.7747C40.2647 27.6911 41.3536 27.9112 42.3784 28.4352C42.9149 28.7094 43.3848 29.0342 43.7884 29.4093C44.144 29.7389 44.7185 29.4929 44.7161 29.0083L44.7111 28.1129C44.7099 27.8239 44.9326 27.5828 45.2217 27.5619L47.2468 27.4155C47.5495 27.3934 47.814 27.6222 47.8349 27.9247L48.8807 42.3988C48.9029 42.7013 48.674 42.9658 48.3714 42.9867L46.3462 43.133C46.0571 43.1539 45.8024 42.9473 45.7618 42.6607L45.6376 41.7789C45.5699 41.3016 44.9695 41.1393 44.6644 41.512C44.3174 41.9351 43.8979 42.3176 43.4058 42.662C42.4658 43.3188 41.42 43.6877 40.2684 43.7701C38.2101 43.919 36.3929 43.2634 34.8168 41.8022C33.2408 40.3411 32.3734 38.5158 32.2147 36.3265C32.0547 34.1188 32.6551 32.1779 34.0147 30.5052ZM37.2394 39.2661C38.2125 40.1258 39.3408 40.5083 40.6252 40.4161C41.9281 40.3226 43.0034 39.7839 43.8536 38.8024C44.7025 37.8209 45.0815 36.6881 44.9892 35.4053C44.8957 34.1028 44.3568 33.0278 43.375 32.1779C42.3932 31.3292 41.2502 30.9516 39.9485 31.0451C38.6641 31.1374 37.6023 31.6748 36.762 32.6551C35.9217 33.6366 35.5489 34.778 35.6436 36.0805C35.7384 37.383 36.2686 38.426 37.2406 39.2661H37.2394Z" fill="black"/>
    <path d="M52.2509 27.3247L56.4131 36.9773C56.5755 37.3266 57.0836 37.2885 57.1944 36.9195L60.0044 26.7651C60.0537 26.5978 60.2013 26.4797 60.376 26.4674L63.1061 26.2706C63.3989 26.2497 63.6216 26.5277 63.5367 26.8094L59.2121 41.1591C59.0177 41.8036 58.4456 42.2612 57.7751 42.3091L56.6912 42.3879C56.0194 42.4358 55.3883 42.0656 55.1028 41.4556L48.7605 27.877C48.6362 27.6113 48.8171 27.3038 49.1099 27.2829L51.8412 27.0861C52.0147 27.0738 52.1771 27.1697 52.2509 27.3272V27.3247Z" fill="black"/>
    <path d="M66.0773 28.2187C67.5118 26.5399 69.3241 25.6223 71.5153 25.4637C73.7435 25.3025 75.6788 25.9458 77.32 27.3922C78.9613 28.8386 79.8631 30.6663 80.0218 32.8753C80.0255 32.9294 80.0317 33.3771 80.0403 34.2196C80.0403 34.2787 79.996 34.3291 79.9369 34.3328L68.0323 35.1925C67.9609 35.1975 67.9105 35.27 67.9326 35.3377C68.2267 36.2417 68.8098 36.9735 69.6821 37.5344C70.5975 38.1223 71.6408 38.3744 72.8109 38.2908C74.457 38.1715 75.7477 37.5319 76.6802 36.3721C76.7135 36.3302 76.7713 36.3179 76.818 36.3425L79.4411 37.7447C79.5002 37.7754 79.5186 37.8517 79.4817 37.907C78.821 38.8762 77.9167 39.6769 76.7713 40.3091C75.5853 40.9634 74.3402 41.3386 73.0372 41.4321C70.6762 41.603 68.6474 40.9659 66.9496 39.5244C65.2517 38.0817 64.3216 36.2466 64.1604 34.0192C64.0017 31.8299 64.6402 29.8964 66.076 28.2175L66.0773 28.2187ZM67.8206 32.4756L76.321 31.8618C76.3874 31.8569 76.4366 31.7942 76.4243 31.729C76.2361 30.7918 75.7255 30.0218 74.8901 29.4179C74.019 28.7882 72.9794 28.5176 71.7712 28.6049C70.6 28.6898 69.6341 29.1105 68.8738 29.8669C68.1455 30.5913 67.7542 31.4228 67.7013 32.3587C67.6976 32.4252 67.7554 32.4805 67.8219 32.4756H67.8206Z" fill="black"/>
    <path d="M66.0773 28.2187C67.5118 26.5399 69.3241 25.6223 71.5153 25.4637C73.7435 25.3025 75.6788 25.9458 77.32 27.3922C78.9613 28.8386 79.8631 30.6663 80.0218 32.8753C80.0255 32.9294 80.0317 33.3771 80.0403 34.2196C80.0403 34.2787 79.996 34.3291 79.9369 34.3328L68.0323 35.1925C67.9609 35.1975 67.9105 35.27 67.9326 35.3377C68.2267 36.2417 68.8098 36.9735 69.6821 37.5344C70.5975 38.1223 71.6408 38.3744 72.8109 38.2908C74.457 38.1715 75.7477 37.5319 76.6802 36.3721C76.7135 36.3302 76.7713 36.3179 76.818 36.3425L79.4411 37.7447C79.5002 37.7754 79.5186 37.8517 79.4817 37.907C78.821 38.8762 77.9167 39.6769 76.7713 40.3091C75.5853 40.9634 74.3402 41.3386 73.0372 41.4321C70.6762 41.603 68.6474 40.9659 66.9496 39.5244C65.2517 38.0817 64.3216 36.2466 64.1604 34.0192C64.0017 31.8299 64.6402 29.8964 66.076 28.2175L66.0773 28.2187ZM67.8206 32.4756L76.321 31.8618C76.3874 31.8569 76.4366 31.7942 76.4243 31.729C76.2361 30.7918 75.7255 30.0218 74.8901 29.4179C74.019 28.7882 72.9794 28.5176 71.7712 28.6049C70.6 28.6898 69.6341 29.1105 68.8738 29.8669C68.1455 30.5913 67.7542 31.4228 67.7013 32.3587C67.6976 32.4252 67.7554 32.4805 67.8219 32.4756H67.8206Z" fill="black"/>
    <path d="M80.0575 22.3578L21.7707 26.8275C21.5234 26.8459 21.3093 26.659 21.2945 26.413L21.1063 23.2766C21.0915 23.0318 21.2773 22.8228 21.5221 22.808L79.868 19.326C80.1116 19.3113 80.322 19.497 80.3368 19.7417L80.466 21.8905C80.4808 22.1315 80.2987 22.3406 80.0575 22.3591V22.3578Z" fill="black"/>
    <path d="M82.3373 37.7878L84.4953 37.6574C84.5876 37.6512 84.6589 37.5738 84.6553 37.4803L83.9909 20.2598C83.9663 19.6092 83.4114 19.1073 82.7605 19.1467L79.8521 19.3263L82.1565 37.6377C82.1675 37.7275 82.2463 37.7927 82.3361 37.7878H82.3373Z" fill="black"/>
    <path d="M83.6169 43.4787C84.9249 43.4787 85.9853 42.3983 85.9853 41.0655C85.9853 39.7327 84.9249 38.6523 83.6169 38.6523C82.309 38.6523 81.2485 39.7327 81.2485 41.0655C81.2485 42.3983 82.309 43.4787 83.6169 43.4787Z" fill="#F7931E"/>
  </g>
  <defs>
    <clipPath id="clip0_187_1544">
      <rect width="86" height="46" fill="white"/>
    </clipPath>
  </defs>
</svg>