<?xml version="1.0" encoding="UTF-8"?>
<svg id="Camada_2" xmlns="http://www.w3.org/2000/svg" viewBox="0 0 698.88 419.2">
  <defs>
    <style>
      .cls-1 {
        fill: #fff;
      }

      .cls-2 {
        fill: #f7931e;
      }
    </style>
  </defs>
  <g id="Camada_1-2" data-name="Camada_1">
    <path class="cls-1" d="M11.49,170.8L0,11.76c-.08-1.05.71-1.96,1.76-2.04l25.46-1.84c.61-.04,1.2.21,1.6.68l85.41,101.94c1.19,1.42,3.49.48,3.36-1.36L109.98,3.81c-.08-1.05.71-1.96,1.76-2.04L136.27,0c1.05-.08,1.96.71,2.04,1.76l11.49,159.05c.08,1.05-.71,1.96-1.76,2.04l-21.64,1.56c-3.01.22-5.94-1.02-7.87-3.34L35.57,62.07c-1.19-1.42-3.49-.48-3.36,1.36l7.61,105.33c.08,1.05-.71,1.96-1.76,2.04l-24.53,1.77c-1.05.08-1.96-.71-2.04-1.76Z"/>
    <path class="cls-1" d="M184.22,53.72c10.56-13.17,23.94-20.34,40.15-21.51,9.07-.66,17.64,1.08,25.72,5.21,4.48,2.29,8.37,5.02,11.67,8.2,2.54,2.45,6.77.61,6.75-2.92l-.04-8.14c-.01-2.11,1.61-3.86,3.72-4.01l16.59-1.2c2.21-.16,4.12,1.5,4.28,3.71l8.29,114.7c.16,2.21-1.5,4.12-3.71,4.28l-16.59,1.2c-2.1.15-3.96-1.35-4.25-3.44l-1.13-8.01c-.49-3.47-4.9-4.7-7.08-1.94-2.82,3.57-6.28,6.79-10.4,9.66-7.4,5.17-15.64,8.08-24.71,8.74-16.21,1.17-30.53-4-42.94-15.51-12.42-11.51-19.25-25.89-20.49-43.14-1.26-17.4,3.47-32.69,14.18-45.87ZM209.61,122.75c7.67,6.77,16.55,9.79,26.67,9.06s18.74-4.98,25.43-12.71c6.69-7.73,9.67-16.65,8.94-26.77-.74-10.26-4.98-18.74-12.71-25.43-7.74-6.69-16.73-9.67-26.99-8.93-10.11.73-18.48,4.96-25.09,12.69-6.62,7.73-9.56,16.72-8.81,26.98.73,10.11,4.92,18.48,12.58,25.1Z"/>
    <path class="cls-1" d="M13.79,197.73l141.93-10.25c1.84-.13,3.43,1.25,3.57,3.09l1.88,26.07c.13,1.84-1.25,3.43-3.09,3.57l-50.47,3.65c-1.84.13-3.22,1.73-3.09,3.57l10.17,140.75c.13,1.84-1.25,3.43-3.09,3.57l-27.41,1.98c-1.84.13-3.43-1.25-3.57-3.09l-10.17-140.75c-.13-1.84-1.73-3.22-3.57-3.09l-50.74,3.67c-1.84.13-3.43-1.25-3.57-3.09l-1.88-26.07c-.13-1.84,1.25-3.43,3.09-3.57Z"/>
    <path class="cls-1" d="M182.88,238.72l17.7-1.28c2-.14,3.78,1.25,4.11,3.23l.98,5.81c.55,3.26,4.71,4.42,6.8,1.85,7.16-8.81,17.55-13.7,31.18-14.69l1.15-.08c2.15-.16,4.22-.23,6.19-.23,2.36,0,4.19,2.07,3.87,4.41l-2.59,19.04c-.25,1.86-1.8,3.26-3.67,3.35-.37.02-.76.04-1.17.07-11.36.82-20.46,4.99-27.33,12.5-6.86,7.52-9.72,19.25-8.56,35.21l3.74,51.83c.15,2.14-1.45,4-3.59,4.15l-19.65,1.42c-2.14.15-4-1.45-4.15-3.59l-8.59-118.86c-.15-2.14,1.45-4,3.59-4.15Z"/>
    <path class="cls-1" d="M276.47,248.02c10.9-13.59,24.71-20.99,41.44-22.2,9.36-.68,18.21,1.11,26.54,5.37,4.36,2.23,8.18,4.87,11.46,7.92,2.89,2.68,7.56.68,7.54-3.26l-.04-7.28c-.01-2.35,1.8-4.31,4.15-4.48l16.46-1.19c2.46-.18,4.61,1.68,4.78,4.14l8.5,117.68c.18,2.46-1.68,4.61-4.14,4.78l-16.46,1.19c-2.35.17-4.42-1.51-4.75-3.84l-1.01-7.17c-.55-3.88-5.43-5.2-7.91-2.17-2.82,3.44-6.23,6.55-10.23,9.35-7.64,5.34-16.14,8.34-25.5,9.01-16.73,1.21-31.5-4.12-44.31-16-12.81-11.88-19.86-26.72-21.15-44.52-1.3-17.95,3.58-33.73,14.63-47.33ZM302.68,319.25c7.91,6.99,17.08,10.1,27.52,9.35,10.59-.76,19.33-5.14,26.24-13.12,6.9-7.98,9.98-17.19,9.23-27.62-.76-10.59-5.14-19.33-13.12-26.24-7.98-6.9-17.27-9.97-27.85-9.21-10.44.75-19.07,5.12-25.9,13.09-6.83,7.98-9.86,17.26-9.09,27.85s5.08,19.07,12.98,25.9Z"/>
    <path class="cls-1" d="M424.69,222.16l33.83,78.48c1.32,2.84,5.45,2.53,6.35-.47l22.84-82.56c.4-1.36,1.6-2.32,3.02-2.42l22.19-1.6c2.38-.17,4.19,2.09,3.5,4.38l-35.15,116.67c-1.58,5.24-6.23,8.96-11.68,9.35l-8.81.64c-5.46.39-10.59-2.62-12.91-7.58l-51.55-110.4c-1.01-2.16.46-4.66,2.84-4.83l22.2-1.6c1.41-.1,2.73.68,3.33,1.96Z"/>
    <path class="cls-1" d="M537.07,229.43c11.66-13.65,26.39-21.11,44.2-22.4,18.11-1.31,33.84,3.92,47.18,15.68,13.34,11.76,20.67,26.62,21.96,44.58.03.44.08,4.08.15,10.93,0,.48-.36.89-.84.92l-96.76,6.99c-.58.04-.99.63-.81,1.18,2.39,7.35,7.13,13.3,14.22,17.86,7.44,4.78,15.92,6.83,25.43,6.15,13.38-.97,23.87-6.17,31.45-15.6.27-.34.74-.44,1.12-.24l21.32,11.4c.48.25.63.87.33,1.32-5.37,7.88-12.72,14.39-22.03,19.53-9.64,5.32-19.76,8.37-30.35,9.13-19.19,1.39-35.68-3.79-49.48-15.51-13.8-11.73-21.36-26.65-22.67-44.76-1.29-17.8,3.9-33.52,15.57-47.17ZM551.24,264.04l69.09-4.99c.54-.04.94-.55.84-1.08-1.53-7.62-5.68-13.88-12.47-18.79-7.08-5.12-15.53-7.32-25.35-6.61-9.52.69-17.37,4.11-23.55,10.26-5.92,5.89-9.1,12.65-9.53,20.26-.03.54.44.99.98.95Z"/>
    <g>
      <path class="cls-1" d="M540.19,382.03c1.2-2.59,2.95-4.65,5.26-6.2,2.31-1.54,4.95-2.42,7.9-2.64s5.49.21,7.73,1.27c2.23,1.06,3.94,2.47,5.13,4.23l-.42-5.87,5.59-.4,2.32,32.18-5.59.4-.43-5.99c-.96,1.96-2.48,3.63-4.55,5.02-2.08,1.39-4.55,2.19-7.43,2.4-2.96.21-5.68-.3-8.17-1.54-2.49-1.24-4.52-3.08-6.08-5.52-1.56-2.44-2.46-5.29-2.69-8.54s.24-6.22,1.44-8.81ZM564.97,382.63c-1.14-1.73-2.61-3.01-4.4-3.84-1.79-.83-3.72-1.18-5.79-1.03s-3.92.76-5.55,1.82c-1.63,1.06-2.89,2.53-3.77,4.4-.88,1.87-1.24,4.02-1.06,6.45.18,2.47.84,4.57,1.98,6.32s2.6,3.04,4.37,3.88c1.77.84,3.69,1.18,5.76,1.03s3.92-.76,5.58-1.85c1.65-1.08,2.92-2.57,3.8-4.47.88-1.89,1.23-4.05,1.06-6.48-.18-2.43-.84-4.5-1.98-6.23Z"/>
      <path class="cls-1" d="M591.25,372.32c2.08-1.39,4.56-2.19,7.43-2.4s5.69.28,8.2,1.47c2.51,1.2,4.54,2.99,6.1,5.37,1.56,2.39,2.45,5.22,2.69,8.51.23,3.25-.25,6.2-1.44,8.84-1.19,2.64-2.94,4.76-5.25,6.34-2.31,1.58-4.94,2.48-7.9,2.7s-5.38-.23-7.64-1.31c-2.26-1.08-4.02-2.49-5.29-4.25l1.53,21.2-5.53.4-3.43-47.45,5.53-.4.43,5.93c.96-1.92,2.48-3.57,4.56-4.96ZM608.04,379.46c-1.14-1.73-2.61-3-4.4-3.81-1.79-.82-3.72-1.15-5.78-1s-3.86.76-5.52,1.84c-1.65,1.08-2.93,2.57-3.83,4.47-.9,1.89-1.27,4.04-1.09,6.42.18,2.43.85,4.51,2.01,6.26,1.16,1.75,2.64,3.04,4.43,3.87,1.79.84,3.7,1.18,5.73,1.03s3.92-.76,5.58-1.85c1.65-1.08,2.92-2.57,3.8-4.47.88-1.89,1.23-4.07,1.05-6.54s-.84-4.5-1.98-6.23Z"/>
      <path class="cls-1" d="M632.33,369.36c2.08-1.39,4.56-2.19,7.43-2.4s5.69.28,8.2,1.47c2.51,1.2,4.54,2.99,6.1,5.37,1.56,2.39,2.45,5.22,2.69,8.51.23,3.25-.25,6.2-1.44,8.84s-2.94,4.76-5.25,6.34c-2.31,1.58-4.94,2.48-7.9,2.7s-5.38-.23-7.64-1.31c-2.26-1.08-4.02-2.49-5.29-4.25l1.53,21.2-5.53.4-3.43-47.45,5.53-.4.43,5.93c.96-1.92,2.48-3.57,4.56-4.96ZM649.12,376.49c-1.14-1.73-2.61-3-4.4-3.81-1.79-.82-3.72-1.15-5.78-1s-3.86.76-5.52,1.84c-1.65,1.08-2.93,2.57-3.83,4.47s-1.27,4.04-1.09,6.42c.18,2.43.85,4.51,2.01,6.26,1.16,1.75,2.64,3.04,4.43,3.87,1.79.84,3.7,1.18,5.73,1.03s3.92-.76,5.58-1.85c1.65-1.08,2.92-2.57,3.8-4.47.88-1.89,1.23-4.07,1.05-6.54-.18-2.43-.84-4.5-1.98-6.23Z"/>
    </g>
    <path class="cls-1" d="M650.7,181.78l-473.75,36.34c-2.01.15-3.75-1.37-3.87-3.37l-1.53-25.5c-.12-1.99,1.39-3.69,3.38-3.81l474.23-28.31c1.98-.12,3.69,1.39,3.81,3.38l1.05,17.47c.12,1.96-1.36,3.66-3.32,3.81Z"/>
    <path class="cls-1" d="M669.23,307.23l17.54-1.06c.75-.05,1.33-.68,1.3-1.44l-5.4-140.01c-.2-5.29-4.71-9.37-10-9.05l-23.64,1.46,18.73,148.88c.09.73.73,1.26,1.46,1.22Z"/>
    <ellipse class="cls-2" cx="679.63" cy="333.88" rx="19.25" ry="19.62"/>
  </g>
</svg>