<svg xmlns="http://www.w3.org/2000/svg" width="100" height="54" viewBox="0 0 100 54" fill="none">
  <g clip-path="url(#clip0_196_3955)">
    <path d="M1.64408 24.6611L0.000309717 1.69804C-0.0111352 1.54643 0.101883 1.41505 0.252097 1.4035L3.89444 1.13783C3.98171 1.13205 4.06611 1.16815 4.12334 1.23601L16.3422 15.9547C16.5125 16.1597 16.8415 16.024 16.8229 15.7583L15.7342 0.55018C15.7228 0.398576 15.8358 0.267185 15.986 0.255635L19.4953 7.29594e-05C19.6455 -0.0114778 19.7757 0.102586 19.7871 0.254191L21.4309 23.2187C21.4424 23.3703 21.3293 23.5017 21.1791 23.5132L18.0833 23.7385C17.6527 23.7702 17.2335 23.5912 16.9574 23.2562L5.089 8.96205C4.91876 8.75702 4.58972 8.89274 4.60832 9.15841L5.69702 24.3665C5.70846 24.5181 5.59544 24.6495 5.44523 24.6611L1.93593 24.9166C1.78571 24.9282 1.65553 24.8141 1.64408 24.6625V24.6611Z" fill="white"/>
    <path d="M26.3549 7.75644C27.8657 5.85489 29.7798 4.81965 32.0989 4.65072C33.3964 4.55542 34.6225 4.80665 35.7784 5.40296C36.4193 5.7336 36.9758 6.12778 37.4479 6.58692C37.8113 6.94066 38.4165 6.67499 38.4136 6.16532L38.4079 4.99002C38.4064 4.68537 38.6382 4.4327 38.9401 4.41104L41.3134 4.23778C41.6296 4.21467 41.9029 4.45435 41.9258 4.77344L43.1117 21.3343C43.1346 21.6534 42.8971 21.9292 42.581 21.9523L40.2076 22.1257C39.9072 22.1474 39.6411 21.9308 39.5996 21.629L39.4379 20.4724C39.3678 19.9713 38.7369 19.7939 38.425 20.1924C38.0216 20.7078 37.5266 21.1726 36.9372 21.587C35.8785 22.3335 34.6997 22.7538 33.4021 22.8491C31.0831 23.018 29.0345 22.2715 27.2591 20.6097C25.4823 18.9478 24.5052 16.8715 24.3278 14.3808C24.1475 11.8685 24.8242 9.66088 26.3564 7.75788L26.3549 7.75644ZM29.9873 17.7234C31.0846 18.7009 32.3549 19.1369 33.8027 19.0315C35.2505 18.9261 36.4837 18.3125 37.4408 17.1964C38.3979 16.0803 38.8242 14.7924 38.7197 13.3311C38.6139 11.8498 38.0073 10.6254 36.9014 9.65943C35.7941 8.6935 34.508 8.26323 33.0402 8.37008C31.5938 8.47548 30.3964 9.08623 29.4508 10.2023C28.5037 11.3184 28.0831 12.6164 28.1904 14.0978C28.2949 15.5576 28.8943 16.7661 29.9901 17.722L29.9873 17.7234Z" fill="white"/>
    <path d="M1.97302 28.5491L22.2777 27.0692C22.541 27.0504 22.7684 27.2496 22.7885 27.5153L23.0574 31.2794C23.076 31.5451 22.8786 31.7747 22.6154 31.7949L15.3951 32.3219C15.1318 32.3407 14.9344 32.5717 14.953 32.8373L16.4079 53.1595C16.4265 53.4252 16.2291 53.6548 15.9659 53.675L12.0446 53.9609C11.7813 53.9796 11.5539 53.7804 11.5338 53.5147L10.0789 33.1925C10.0603 32.9269 9.83139 32.7276 9.56816 32.7464L2.30922 33.2763C2.04599 33.295 1.81852 33.0958 1.79849 32.8301L1.52953 29.066C1.51094 28.8003 1.70836 28.5708 1.97159 28.5505L1.97302 28.5491Z" fill="white"/>
    <path d="M26.163 34.4676L28.6952 34.2828C28.9813 34.2626 29.2359 34.4633 29.2831 34.7491L29.4233 35.588C29.502 36.0587 30.0972 36.2262 30.3962 35.8551C31.4205 34.5831 32.9069 33.8771 34.8568 33.7341L35.0213 33.7226C35.3289 33.6995 35.6251 33.6894 35.9069 33.6894C36.2445 33.6894 36.5063 33.9882 36.4605 34.3261L36.09 37.0752C36.0542 37.3437 35.8325 37.5459 35.565 37.5589C35.512 37.5618 35.4562 37.5647 35.3976 37.569C33.7724 37.6874 32.4706 38.2895 31.4877 39.3738C30.5063 40.4596 30.0972 42.1532 30.2631 44.4576L30.7982 51.9411C30.8196 52.2501 30.5907 52.5186 30.2846 52.5403L27.4734 52.7453C27.1673 52.767 26.9012 52.5359 26.8797 52.227L25.6508 35.0654C25.6293 34.7564 25.8582 34.4878 26.1644 34.4662L26.163 34.4676Z" fill="white"/>
    <path d="M39.552 35.8102C41.1114 33.848 43.0871 32.7796 45.4805 32.6049C46.8195 32.5067 48.0856 32.7652 49.2773 33.3802C49.9011 33.7022 50.4476 34.0834 50.9168 34.5238C51.3303 34.9107 51.9984 34.622 51.9955 34.0531L51.9898 33.002C51.9884 32.6626 52.2473 32.3797 52.5835 32.3551L54.9383 32.1833C55.2902 32.1573 55.5978 32.4259 55.6221 32.781L56.8381 49.7723C56.8639 50.1275 56.5978 50.4379 56.2459 50.4624L53.8911 50.6343C53.5549 50.6588 53.2587 50.4162 53.2115 50.0798L53.067 49.0446C52.9884 48.4844 52.2902 48.2938 51.9354 48.7313C51.532 49.2279 51.0442 49.677 50.4719 50.0813C49.3789 50.8523 48.1629 51.2854 46.8238 51.3822C44.4304 51.5569 42.3174 50.7873 40.4848 49.072C38.6522 47.3567 37.6436 45.214 37.459 42.644C37.2731 40.0523 37.9712 37.7739 39.552 35.8102ZM43.3017 46.0948C44.4333 47.104 45.7452 47.5531 47.2387 47.4448C48.7537 47.3351 50.0041 46.7026 50.9927 45.5505C51.9798 44.3983 52.4204 43.0685 52.3131 41.5625C52.2044 40.0335 51.5778 38.7716 50.4361 37.7739C49.2945 36.7776 47.9655 36.3344 46.4519 36.4441C44.9583 36.5524 43.7237 37.1833 42.7466 38.3341C41.7695 39.4863 41.336 40.8262 41.4462 42.3552C41.5563 43.8843 42.1729 45.1086 43.3031 46.0948H43.3017Z" fill="white"/>
    <path d="M60.7568 32.0764L65.5965 43.4078C65.7854 43.8178 66.3762 43.7731 66.505 43.3399L69.7725 31.4195C69.8297 31.2231 70.0014 31.0845 70.2045 31.0701L73.3791 30.839C73.7196 30.8145 73.9785 31.1408 73.8798 31.4714L68.8512 48.3168C68.6251 49.0734 67.9599 49.6105 67.1802 49.6668L65.9198 49.7593C65.1387 49.8156 64.4048 49.381 64.0729 48.6648L56.6981 32.7247C56.5536 32.4128 56.7639 32.0519 57.1044 32.0273L60.2804 31.7963C60.4821 31.7819 60.6709 31.8945 60.7568 32.0793V32.0764Z" fill="white"/>
    <path d="M76.8341 33.1261C78.5022 31.1552 80.6095 30.0781 83.1574 29.8919C85.7483 29.7027 87.9986 30.4579 89.9071 32.1558C91.8155 33.8538 92.8641 35.9994 93.0487 38.5925C93.053 38.6561 93.0601 39.1816 93.0701 40.1706C93.0701 40.24 93.0186 40.2992 92.95 40.3035L79.1073 41.3127C79.0244 41.3185 78.9657 41.4037 78.9915 41.4831C79.3334 42.5443 80.0115 43.4034 81.0258 44.0618C82.0902 44.752 83.3033 45.048 84.6638 44.9498C86.578 44.8097 88.0787 44.0589 89.1631 42.6974C89.2018 42.6483 89.269 42.6339 89.3234 42.6627L92.3734 44.3087C92.4421 44.3448 92.4636 44.4343 92.4206 44.4993C91.6524 45.6371 90.6009 46.577 89.269 47.3192C87.8899 48.0873 86.4421 48.5277 84.9271 48.6374C82.1817 48.8381 79.8226 48.0902 77.8484 46.398C75.8741 44.7043 74.7926 42.5501 74.6052 39.9353C74.4206 37.3652 75.1631 35.0955 76.8327 33.1247L76.8341 33.1261ZM78.8613 38.1233L88.7454 37.4028C88.8226 37.397 88.8799 37.3234 88.8656 37.2469C88.6467 36.1466 88.053 35.2428 87.0816 34.5339C86.0687 33.7946 84.8598 33.477 83.455 33.5795C82.093 33.6791 80.97 34.1729 80.0859 35.0609C79.239 35.9113 78.784 36.8873 78.7225 37.9861C78.7182 38.0641 78.7854 38.129 78.8627 38.1233H78.8613Z" fill="white"/>
    <path d="M93.0899 26.2463L25.3145 31.4933C25.0269 31.5149 24.778 31.2954 24.7609 31.0067L24.542 27.3249C24.5248 27.0375 24.7408 26.7921 25.0255 26.7748L92.8696 22.6872C93.1528 22.6699 93.3975 22.8879 93.4146 23.1752L93.5649 25.6976C93.582 25.9806 93.3703 26.2261 93.0899 26.2477V26.2463Z" fill="white"/>
    <path d="M95.7409 44.3594L98.2502 44.2064C98.3575 44.1991 98.4405 44.1082 98.4362 43.9985L97.6637 23.7831C97.635 23.0193 96.9898 22.4302 96.233 22.4764L92.8511 22.6872L95.5306 44.1833C95.5435 44.2887 95.635 44.3652 95.7395 44.3594H95.7409Z" fill="white"/>
    <path d="M97.229 51.0401C98.7499 51.0401 99.983 49.7718 99.983 48.2073C99.983 46.6427 98.7499 45.3745 97.229 45.3745C95.7081 45.3745 94.4751 46.6427 94.4751 48.2073C94.4751 49.7718 95.7081 51.0401 97.229 51.0401Z" fill="#F7931E"/>
  </g>
  <defs>
    <clipPath id="clip0_196_3955">
      <rect width="100" height="54" fill="white"/>
    </clipPath>
  </defs>
</svg>